<?xml version="1.0" standalone="no"?>
<!DOCTYPE svg PUBLIC "-//W3C//DTD SVG 20010904//EN"
 "http://www.w3.org/TR/2001/REC-SVG-20010904/DTD/svg10.dtd">
<svg version="1.0" xmlns="http://www.w3.org/2000/svg"
 width="668.000000pt" height="668.000000pt" viewBox="0 0 668.000000 668.000000"
 preserveAspectRatio="xMidYMid meet">
<metadata>
Created by potrace 1.14, written by Peter Selinger 2001-2017
</metadata>
<g transform="translate(0.000000,668.000000) scale(0.100000,-0.100000)"
fill="#000000" stroke="none">
<path d="M1943 4507 c23 -92 24 -544 2 -682 -2 -11 -6 -45 -9 -75 -4 -30 -8
-66 -10 -80 -5 -29 -14 -96 -21 -155 -3 -22 -10 -67 -16 -100 -6 -33 -13 -76
-15 -95 -2 -19 -7 -51 -10 -70 -10 -60 -12 -73 -19 -131 -3 -31 -7 -66 -10
-77 -4 -21 -9 -72 -24 -227 -7 -74 -6 -230 2 -265 2 -8 7 -31 11 -50 5 -19 13
-41 18 -47 6 -7 7 -13 3 -13 -13 0 48 -95 88 -138 43 -44 131 -97 147 -87 4 3
10 1 12 -4 1 -5 16 -13 32 -17 25 -6 27 -4 22 12 -5 17 -17 87 -33 194 -13 90
-1 283 28 424 23 116 50 197 94 286 100 204 196 282 297 242 60 -24 109 -146
111 -274 2 -169 -20 -274 -107 -493 -46 -118 -198 -280 -281 -301 -37 -9 -40
-23 -8 -29 15 -4 38 -10 50 -15 23 -10 148 -7 198 5 54 12 161 75 217 128 190
181 292 441 284 727 -2 69 -6 134 -9 145 -3 11 -8 34 -13 50 -28 117 -121 237
-218 285 -199 98 -411 -26 -550 -323 -20 -42 -36 -84 -36 -92 0 -7 -5 -17 -10
-20 -6 -4 -8 -10 -6 -14 3 -4 0 -13 -5 -21 -9 -14 -5 110 5 167 2 10 7 50 11
88 4 39 8 77 10 85 1 8 6 42 9 75 4 33 9 71 11 85 2 14 9 68 15 120 6 52 13
109 16 125 3 17 7 98 9 180 4 126 2 160 -14 210 -46 154 -109 223 -243 271
-40 14 -40 14 -35 -9z"/>
<path d="M4238 4524 c-3 -2 -1 -27 3 -56 8 -55 4 -610 -5 -708 -3 -30 -8 -95
-11 -145 -4 -49 -8 -101 -10 -115 -2 -14 -7 -47 -10 -75 -4 -44 -17 -131 -20
-145 -1 -3 -5 -27 -10 -55 -5 -27 -10 -52 -10 -55 -1 -3 -7 -32 -14 -65 -50
-227 -104 -387 -176 -515 -46 -82 -137 -150 -210 -157 -95 -10 -152 41 -180
162 -8 34 -8 206 -1 245 3 14 8 39 12 55 60 296 242 534 477 626 38 14 65 29
59 33 -25 15 -174 33 -252 31 -175 -6 -310 -85 -452 -263 -91 -115 -167 -289
-193 -442 -17 -101 -13 -312 7 -390 55 -215 210 -315 426 -276 161 29 362 219
428 405 l13 36 1 -47 c0 -50 15 -134 32 -183 36 -106 94 -170 190 -212 68 -28
78 -29 72 0 -23 104 -22 512 1 692 2 17 6 53 10 81 3 29 7 60 9 70 2 11 7 46
10 79 4 33 16 114 26 180 10 66 22 140 25 165 3 25 12 88 20 140 55 383 53
562 -10 705 -29 65 -75 118 -129 150 -45 27 -122 56 -128 49z"/>
<path d="M6376 4383 c13 -65 13 -458 1 -523 -3 -14 -8 -59 -11 -100 -4 -41 -8
-86 -10 -100 -3 -14 -7 -56 -11 -95 -3 -38 -8 -83 -10 -100 -8 -50 -14 -97
-20 -155 -3 -30 -8 -66 -10 -80 -2 -14 -7 -56 -11 -95 -3 -38 -8 -72 -9 -75
-2 -3 -6 -39 -10 -80 -4 -41 -9 -84 -11 -95 -2 -11 -7 -49 -10 -83 -3 -35 -7
-78 -10 -95 -11 -73 -13 -304 -3 -341 26 -94 89 -144 200 -160 25 -4 57 -9 72
-11 30 -6 36 9 27 70 -8 50 -5 331 4 450 4 50 9 124 12 165 3 41 7 86 9 100 2
14 6 59 10 100 3 41 8 86 10 100 2 14 7 54 11 90 3 36 7 72 9 80 1 8 6 44 10
80 3 36 8 76 10 90 2 14 7 54 10 90 4 36 9 79 11 95 2 17 6 63 10 104 3 41 8
84 10 95 11 51 4 235 -10 288 -17 64 -56 131 -95 166 -29 26 -133 78 -172 87
l-26 6 13 -68z"/>
<path d="M808 4165 c-2 -2 -25 -5 -53 -8 -54 -6 -105 -17 -105 -23 0 -2 20
-31 45 -64 39 -54 43 -64 34 -88 -6 -15 -23 -61 -39 -102 -29 -78 -112 -270
-173 -400 -100 -214 -121 -260 -147 -315 -15 -33 -51 -108 -79 -168 -28 -59
-51 -109 -51 -111 0 -2 -25 -56 -55 -119 -30 -63 -55 -119 -55 -125 0 -6 -3
-12 -8 -14 -12 -5 -112 -246 -116 -282 -8 -64 43 -116 167 -171 42 -18 59 -22
62 -13 2 7 15 55 29 105 30 106 123 376 153 443 11 25 22 51 25 59 5 18 1 18
234 25 194 6 314 20 324 36 9 15 43 15 45 0 4 -22 33 -155 50 -230 9 -36 18
-76 21 -90 36 -174 101 -308 145 -297 11 3 17 2 14 -3 -14 -22 128 -21 182 2
15 6 31 12 35 12 3 1 10 4 14 9 4 4 15 7 24 7 36 0 40 23 12 70 -59 97 -153
376 -186 550 -2 14 -9 45 -15 70 -5 25 -12 56 -15 70 -11 61 -38 188 -46 220
-5 19 -12 51 -15 70 -3 19 -15 71 -25 115 -11 44 -31 136 -46 205 -14 69 -27
132 -29 140 -15 66 -60 201 -84 249 -30 59 -78 108 -130 136 -25 12 -136 36
-143 30z m67 -570 c17 -72 19 -79 35 -155 6 -25 12 -54 15 -65 2 -11 20 -90
40 -175 19 -85 39 -169 44 -186 5 -17 6 -35 2 -40 -7 -10 -466 -13 -475 -3 -6
6 57 155 164 389 104 229 116 256 130 288 7 18 16 29 20 25 4 -4 15 -39 25
-78z"/>
<path d="M5569 3616 c-3 -3 -4 -99 -3 -213 3 -219 -7 -303 -56 -486 -53 -199
-196 -416 -287 -433 -49 -9 -73 4 -94 52 -19 42 -26 157 -14 239 8 63 27 164
50 280 33 166 35 179 40 275 4 74 1 92 -19 136 -27 59 -59 87 -124 108 -51 17
-207 36 -221 27 -5 -4 -3 -37 5 -76 21 -108 18 -243 -11 -441 -45 -300 -48
-339 -48 -469 1 -211 65 -339 186 -372 12 -4 51 -6 87 -6 78 -1 125 21 205 95
109 100 196 236 269 423 l35 90 -7 -55 c-4 -30 -7 -113 -7 -185 0 -117 3 -136
26 -192 14 -33 37 -74 50 -91 41 -50 135 -109 211 -132 26 -8 27 -7 18 11 -6
10 -8 19 -6 19 3 0 1 11 -3 24 -31 80 -35 503 -7 666 3 14 7 45 10 70 14 105
38 265 42 271 2 4 6 55 10 115 5 101 4 112 -18 154 -34 66 -91 92 -217 98 -53
2 -99 2 -102 -2z"/>
</g>
</svg>
